<?xml version="1.0" encoding="UTF-8"?>
<svg id="Camada_2" xmlns="http://www.w3.org/2000/svg" viewBox="0 0 427.21 418.6">
  <defs>
    <style>
      .cls-1 {
        fill: #9ca3af;
      }
    </style>
  </defs>
  <g id="Camada_1-2" data-name="Camada_1">
    <g id="oNuRQt">
      <g>
        <path class="cls-1" d="M217.07,0c14.03-.15,29.79,2.16,45.26,6.54,1.88.53,4.21,1.14,5.24,2.53,1.06,1.44,1.74,4.76.89,5.65-1.4,1.48-4.31,2.57-6.31,2.23-8.18-1.38-16.19-3.88-24.39-5.04-41.52-5.88-79.67,3.18-114.4,26.65-2.21,1.49-4.36,3.06-6.52,4.62-2.66,1.92-5.37,2.25-7.51-.5-2.31-2.97-1.3-5.86,1.59-7.7,9.53-6.07,18.85-12.62,28.89-17.72C163.35,5.3,188.59-.1,217.07,0Z"/>
        <path class="cls-1" d="M393.26,227.71c-.05,5.25-4.31,9.44-9.52,9.39-4.81-.05-9.2-4.43-9.27-9.25-.08-5.15,4.2-9.5,9.4-9.56,5.24-.06,9.45,4.16,9.39,9.42Z"/>
        <path class="cls-1" d="M46.32,218.42c5.15.09,9.35,4.52,9.22,9.7-.14,5.24-4.47,9.26-9.77,9.07-5.02-.18-9-4.31-9.03-9.36-.03-5.01,4.55-9.5,9.59-9.41Z"/>
        <path class="cls-1" d="M276.34,16.73c2.02-1.44,4.2-4.2,6.01-3.98,2.03.26,4.85,2.98,5.28,5.05.61,2.89-1.85,5.64-5.09,5.12-2.21-.36-4.12-2.53-6.17-3.89-.01-.77-.02-1.54-.04-2.31Z"/>
        <path class="cls-1" d="M424.91,216.39c-22.01-27.19-43.98-54.42-65.98-81.62-3.72-4.6-5.75-4.78-10.38-1.06-13.5,10.86-26.97,21.75-40.47,32.61-1.33,1.07-2.77,2.01-4.64,3.37-2.45-47.64-12.3-91.68-45.91-127.21,26.83,8.62,48.77,23.84,66.79,46.57-6.02,2.52-11.17,4.76-16.39,6.84-3.31,1.32-6.55,2.86-5.06,7.11,1.45,4.11,4.94,3.95,8.35,2.56,6.27-2.55,12.49-5.22,19.16-8.02,1.02,1.57,2.28,3.32,3.33,5.17,2.14,3.76,3.77,7.89,6.4,11.26,1.28,1.64,4.64,3.04,6.5,2.53,3.07-.84,3.68-3.95,2.32-7.03-.34-.76-.69-1.52-1.05-2.27-26.01-53.6-87.27-88.49-146.3-81.48-64.36,7.64-107.38,42.95-129.05,104.15-.92,2.59-2.3,5.19-4.06,7.29-21.98,26.13-44.08,52.17-66.14,78.24-.86,1.02-2.29,2.08-2.32,3.15-.06,2.09.01,5,1.29,6.08,1.23,1.04,4.38.84,6.08-.02,1.94-.98,3.25-3.25,4.76-5.03,20.35-24.02,40.68-48.06,61.03-72.09,1.13-1.34,2.4-2.56,3.81-4.06,12.82,10.33,25.2,20.32,38.13,30.75-24.31,27.66-48.21,54.83-72.23,82.15-3.43-2.72-6.31-4.97-9.16-7.27-2.59-2.09-5.3-2.41-7.5.25-2.16,2.61-1.5,5.35.97,7.49,3.02,2.62,6.23,5.02,9.27,7.61,3.66,3.12,7.23,6.31,12.04,1.67.83,1.45,1.4,2.27,1.81,3.17,9.99,21.79,21.01,42.83,40.55,57.95.78.6,1.06,2.65.72,3.76-4.21,13.67,4.68,28.9,19.02,31.97,2.5.54,3.27,1.41,4.05,3.89,3.45,11.03,10.59,18.51,22.14,21.33,1.07.26,2.72,1.21,2.81,2,.93,7.47,6.18,11.98,11.11,16.69,7.9,7.55,18.4,7.57,26.47.15,2.03-1.87,4-3.81,6.15-5.86.57,1,.87,1.4,1.05,1.84,7.15,17.15,25.8,20.89,38.82,7.58,5.83-5.95,11.16-12.4,16.96-18.9,6.41,7.22,14.37,13.68,26.07,10.66,11.79-3.04,16.84-11.54,17.72-23.33,12.87-.14,21.24-6.26,24.91-18.5.98.22,1.63.31,2.24.52,19.6,6.73,34.85-10.92,30.34-26.99-.42-1.48,1.05-3.9,2.27-5.36,4.79-5.74,10.6-10.77,14.61-16.98,6.39-9.9,11.46-20.65,17.48-30.8,2.42-4.09,5.18-9.41,9.05-10.9,7.45-2.86,11.89-8.85,17.79-13.24,2.8-2.08,3.64-4.92,1.13-7.74-2.55-2.87-5.33-2.01-7.91.22-2.75,2.38-5.48,4.76-8.72,7.58-24.33-27.92-48.14-55.25-72.2-82.87,12.85-10.38,25.2-20.36,37.78-30.52,2.69,3.27,4.92,5.94,7.11,8.64,19.06,23.58,38.12,47.15,57.17,70.74,2.34,2.9,5,4.85,8.4,1.86,3.12-2.75,1.72-5.58-.49-8.3ZM112.11,80.75c2.07-2.37,4.45-4.8,7.07-7.23,1.31-1.21,2.67-2.42,4.08-3.63s2.87-2.4,4.37-3.58c3-2.36,6.15-4.67,9.38-6.86,1.61-1.1,3.24-2.16,4.89-3.2,4.92-3.1,9.92-5.88,14.73-8.16,3.21-1.52,6.33-2.82,9.3-3.83,1.48-.51,2.92-.95,4.32-1.31.7-.18,1.38-.34,2.05-.48-1.1,1.39-1.75,2.41-2.58,3.24-1.43,1.44-2.81,2.91-4.15,4.41-2.67,3-5.15,6.13-7.46,9.36-1.16,1.62-2.27,3.26-3.35,4.93-1.62,2.5-3.15,5.06-4.6,7.67-.97,1.74-1.91,3.5-2.81,5.29-.45.89-.9,1.79-1.34,2.69-.88,1.8-1.72,3.63-2.54,5.47-.19.42-.35.84-.49,1.25-.28.82-.46,1.62-.5,2.37-.06,1.13.2,2.16.88,3.02.11.14.24.29.38.42.41.41.94.77,1.59,1.09.97.47,1.84.66,2.61.64.19,0,.38-.03.57-.06.18-.03.36-.08.54-.14.87-.29,1.61-.88,2.25-1.67.13-.16.25-.32.37-.5.24-.35.47-.72.68-1.12s.42-.82.61-1.25c4.34-9.93,9.48-19.31,16.02-27.69,1.31-1.68,2.67-3.31,4.1-4.91.71-.8,1.44-1.58,2.18-2.36,1.49-1.55,3.04-3.05,4.66-4.51.81-.73,1.64-1.44,2.48-2.15,1.71-1.42,3.44-2.72,5.18-3.9,5.81-3.92,11.81-6.47,17.94-7.62,1.84-.34,3.69-.56,5.56-.66v72.7c-2.27-.11-4.53-.21-6.79-.32-3.39-.16-6.77-.33-10.15-.52-6.75-.38-13.47-.83-20.15-1.45-1.11-.1-2.22-.21-3.34-.33-12.22-1.25-24.28-3.12-36.12-6.21-1.08-.28-2.15-.57-3.22-.87-2.15-.6-4.28-1.25-6.41-1.94-1.06-.35-2.13-.7-3.19-1.07-5.3-1.84-10.56-3.98-15.75-6.47,1.47-2.7,3.57-5.58,6.16-8.55ZM85.48,137.38c-2.83-2.21-3.43-4.16-2.22-7.55,4.12-11.48,9.27-22.39,16.06-32.46,35.41,17.64,73.46,19.69,112.07,21.32,0,9.8,0,19.26,0,28.71,0,1.33.05,2.67,0,4-.16,3.72.82,7.1,5.04,7.18,4.69.09,5.31-3.67,5.3-7.44-.03-9,.15-18-.16-26.98-.15-4.39.99-5.9,5.72-6.11,13.79-.61,27.56-1.88,41.32-3.04,4.91-.41,7.29-2.82,6.44-6.33-1.05-4.3-4.21-4.1-7.87-3.75-14.86,1.44-29.75,2.58-45.3,3.89V35.12c5.79,2.28,11.21,3.79,16.02,6.41,15.99,8.72,26.29,22.78,34.39,38.57,14.35,27.97,19.85,58.06,20.61,89.21.02.63-.21,1.26-.51,3-5.97-1.22-11.84-2.02-17.47-3.64-17.17-4.94-34.1-4.85-49.93,3.78-6.18,3.37-10.36,3.3-16.46-.04-14.64-8.03-30.45-8.77-46.54-4.57-6.76,1.76-13.55,3.42-20.34,5.05-1.39.33-2.85.32-5.6.61,1.22-12.88,2.36-25.07,3.56-37.26.19-1.98.6-3.95.98-5.91.66-3.4-.73-5.65-4.01-6.31-3.46-.7-5.47,1.38-5.96,4.54-1.24,8.05-2.34,16.13-3.25,24.22-.59,5.26-.74,10.57-1.14,16.68-1.86-1.27-3.24-2.07-4.46-3.05-12.09-9.68-24.09-19.48-36.28-29.02ZM118.73,351.71c-.23.23-.53.4-.82.55-4.53,2.39-9.51-.04-15.64-7.64-2.9-3.6-3.07-7.39-.07-10.88,2.81-3.27,5.87-6.35,9.09-9.22,3.77-3.36,7.99-3.33,11.61.21,3.33,3.26,6.22,6.97,9.04,10.18-1,2.7-1.15,4.4-2.07,5.4-3.58,3.92-7.4,7.62-11.14,11.4ZM144.79,375.28c-1.57,1.51-3.93,2.2-5.03,2.79-6.11-.13-15.38-9.12-15.04-13.99.15-2.1,1.27-4.53,2.73-6.09,6.94-7.4,14.12-14.59,21.28-21.78,5.17-5.2,9.47-5.2,14.64-.15,1.43,1.4,2.87,2.79,4.21,4.26,3.57,3.92,3.79,8.26.16,12.01-7.52,7.77-15.17,15.43-22.95,22.95ZM171.47,398.36c-5.42,5.39-9.45,5.34-14.96-.06-1.42-1.4-2.9-2.76-4.18-4.29-3.21-3.82-3.39-8.16.07-11.71,9.18-9.41,18.51-18.66,27.94-27.82,1.44-1.4,3.68-1.96,5.34-2.81,6.9,1.67,10.8,6.25,13.73,11.45,2.5,4.43-.49,7.82-3.58,10.89-8.15,8.08-16.21,16.26-24.36,24.35ZM225.83,393.36c-3.74,4.21-7.75,8.22-11.97,11.95-4.64,4.09-11.3,3.89-16,.02-4.4-3.63-6.16-10.63-2.54-15.27,4.33-5.56,9.71-10.35,14.93-15.15,1.43-1.31,3.94-1.45,5.13-1.86,5.98.41,9.93,2.55,12.03,7.24,2.05,4.59,1.81,9.24-1.58,13.07ZM330.44,345.65c-2.37,4.59-7.36,7.68-12.37,6.47-3.2-.77-6.52-2.66-8.88-4.98-11.79-11.53-23.29-23.36-34.89-35.09-1.29-1.3-2.59-2.59-3.92-3.85-2.37-2.25-4.99-2.9-7.5-.43-2.46,2.43-2.05,5.08.25,7.49,1.95,2.05,3.93,4.08,5.93,6.09,8.44,8.52,16.63,17.32,25.44,25.44,5.86,5.41,4.59,14.24.89,17.93-5.05,5.05-12.81,5.12-18.32-.3-9.62-9.46-19.11-19.05-28.65-28.59-.82-.82-1.66-1.64-2.45-2.5-2.49-2.66-5.3-4.63-8.54-1.47-3.21,3.13-1.41,5.95,1.21,8.56,8.86,8.81,17.67,17.67,26.49,26.52,1.41,1.42,2.84,2.82,4.21,4.27,5.21,5.49,5.4,12.85.48,17.88-4.94,5.06-12.79,4.85-18.29-.55-4.28-4.2-8.61-8.36-12.7-12.75-7.65-8.19-15.72-15.24-27.9-12.2-5.75-13.66-16.51-24.02-30.44-21.55-10.28-18.99-24.83-26.72-39.79-12.99-14.29-18.98-25.5-23.01-41.36-7.72-5.47-5.38-12-10.1-16.28-16.36-7.85-11.48-13.87-24.22-21.63-35.77-6.04-8.99-4.09-14.76,3.01-22.31,17.92-19.03,34.81-39.03,51.92-58.81,2.69-3.11,5.33-4.19,9.38-3.9,12.51.9,24.44-2.36,36.31-5.78,15.94-4.6,31.21-3.53,47.79,6.13-3.2,2.36-5.93,3.97-8.18,6.1-14.64,13.85-29.28,27.71-43.72,41.78-7.23,7.05-8.43,16.93-3.69,25.21,5.87,10.24,15.95,15.3,25.86,12.32,3.52-1.06,7.03-3.19,9.76-5.68,10.08-9.21,19.81-18.81,29.74-28.19,5.3-5.01,8.49-4.98,13.65.16,31.37,31.31,62.71,62.65,94.02,94.02,4.83,4.84,5.81,10.22,3.14,15.4ZM377.08,261.07c.1.11.09.32.14.48-.37-.2-.74-.4-1.11-.61-6.47,11.54-12.92,23.09-19.43,34.62-5.76,10.21-12.63,19.52-23.44,28.51-1.03-1.83-1.7-3.92-3.08-5.31-30.09-30.23-60.25-60.39-90.42-90.53-7.93-7.92-17.99-8.09-26.22-.37-10.21,9.57-20.31,19.25-30.4,28.94-3.74,3.59-7.92,4.86-12.76,2.7-5.26-2.34-9.11-7.99-8.28-13.02.43-2.6,1.77-5.52,3.63-7.33,16.96-16.49,33.95-32.95,51.28-49.05,14.41-13.4,31.72-17.23,50.6-12.62,12.37,3.01,24.53,6.23,37.42,3.71,1.25-.24,3.24.79,4.18,1.85,22.69,25.96,45.29,52,67.9,78.04Z"/>
      </g>
    </g>
  </g>
</svg>